<?xml version="1.0" standalone="no"?>
<!DOCTYPE svg PUBLIC "-//W3C//DTD SVG 20010904//EN"
 "http://www.w3.org/TR/2001/REC-SVG-20010904/DTD/svg10.dtd">
<svg version="1.0" xmlns="http://www.w3.org/2000/svg"
 width="155.000000pt" height="271.000000pt" viewBox="0 0 155.000000 271.000000"
 preserveAspectRatio="xMidYMid meet">

<g transform="translate(0.000000,271.000000) scale(0.100000,-0.100000)"
fill="#000000" stroke="none">
<path d="M555 2614 c-56 -11 -76 -21 -105 -49 -22 -21 -43 -33 -51 -30 -18 7
-81 -18 -99 -39 -7 -9 -19 -16 -27 -16 -24 0 -133 -112 -159 -162 -27 -53 -25
-63 23 -131 18 -26 33 -51 33 -56 0 -5 9 -28 20 -52 l19 -44 118 -1 c142 0
308 -27 381 -61 l53 -25 72 25 c129 46 350 63 469 38 55 -12 59 -15 85 -64 27
-50 28 -57 26 -190 -1 -115 1 -135 12 -120 7 10 16 38 20 63 4 24 16 69 25
100 10 30 22 73 26 95 3 22 11 46 17 53 15 19 0 150 -23 198 -24 49 -25 58 -4
50 9 -3 20 -4 25 -1 12 8 -105 163 -149 196 -20 16 -59 48 -85 71 -65 57 -82
66 -150 74 -32 4 -64 12 -70 18 -38 36 -211 69 -313 61 -47 -4 -74 -3 -79 4
-8 13 -20 13 -110 -5z m12 -311 c-3 -10 -5 -4 -5 12 0 17 2 24 5 18 2 -7 2
-21 0 -30z m480 -33 c-7 -17 -13 -26 -15 -21 -3 10 15 51 22 51 3 0 -1 -14 -7
-30z m-210 -52 c-3 -7 -5 -2 -5 12 0 14 2 19 5 13 2 -7 2 -19 0 -25z m-593
-14 c3 -8 2 -12 -4 -9 -6 3 -10 10 -10 16 0 14 7 11 14 -7z"/>
<path d="M54 2144 c-48 -114 -43 -290 12 -434 20 -52 39 -98 43 -102 3 -4 6
57 6 136 0 142 0 143 33 206 25 48 32 71 28 94 -6 33 -72 127 -94 134 -7 2
-19 -12 -28 -34z"/>
<path d="M150 1544 c-14 -2 -44 -9 -67 -16 -39 -10 -43 -13 -43 -43 0 -18 9
-44 20 -58 14 -17 25 -58 35 -127 20 -131 44 -171 122 -200 106 -40 311 -19
378 38 31 26 93 123 101 157 7 32 29 61 56 76 24 13 61 -30 88 -100 12 -31 40
-77 64 -104 59 -66 127 -90 261 -89 125 0 178 20 218 81 29 44 57 142 57 203
0 24 8 46 26 67 20 24 24 37 19 61 -4 16 -10 32 -14 35 -21 13 -132 20 -296
19 -163 0 -191 -3 -298 -29 l-119 -28 -116 28 c-102 25 -139 29 -292 31 -96 1
-186 0 -200 -2z"/>
<path d="M637 935 c-36 -19 -73 -35 -81 -35 -21 0 -74 -47 -91 -81 -13 -24
-22 -119 -12 -119 2 0 24 18 48 41 51 48 67 55 151 68 79 13 108 39 108 96 0
75 -26 81 -123 30z"/>
<path d="M822 962 c-23 -15 -25 -74 -3 -109 20 -32 31 -36 123 -48 53 -7 122
-52 140 -90 6 -14 14 -25 18 -25 11 0 19 52 13 85 -6 31 -67 115 -84 115 -5 0
-47 18 -93 40 -89 43 -94 44 -114 32z"/>
<path d="M682 681 c-24 -34 -36 -72 -25 -86 18 -23 74 -45 115 -45 75 0 125
40 100 80 -7 12 -10 25 -6 31 3 6 -2 19 -12 30 -14 15 -31 19 -84 19 -62 0
-68 -2 -88 -29z"/>
<path d="M314 585 c-9 -23 3 -74 33 -135 48 -97 113 -167 97 -105 -4 15 -2 25
5 25 6 0 11 -9 11 -20 0 -60 63 -123 156 -155 129 -46 305 -30 400 36 34 23
46 40 61 86 24 70 49 86 38 24 -9 -54 6 -53 43 2 36 54 59 117 68 190 8 71 7
71 -120 17 -51 -22 -115 -43 -142 -46 -27 -3 -79 -13 -116 -21 -75 -17 -150
-13 -176 9 -17 15 -114 38 -162 38 -14 0 -51 13 -81 29 -72 38 -108 46 -115
26z"/>
</g>
</svg>
